<?xml version="1.0" encoding="utf-8"?>
<!-- Generator: Adobe Illustrator 18.0.0, SVG Export Plug-In . SVG Version: 6.00 Build 0)  -->
<!DOCTYPE svg PUBLIC "-//W3C//DTD SVG 1.1//EN" "http://www.w3.org/Graphics/SVG/1.1/DTD/svg11.dtd">
<svg version="1.1" id="Layer_1" xmlns="http://www.w3.org/2000/svg" xmlns:xlink="http://www.w3.org/1999/xlink" x="0px" y="0px"
	 viewBox="0 0 792 612" enable-background="new 0 0 792 612" xml:space="preserve">
<g>
	<g>
		<path fill="#26737B" d="M115.2,137.2c0,0-11-58.6-40.5-54.1s-32.2,22.2-29.2,107.5S57.9,325.7,92.9,324
			c34.5-1.7,43.5-37.4,44.7-63c1-23.6-6.5-33.2-1.6-36.7s19.2,10.8,11.7,54.7c-7.6,44.9-35.7,60.7-72,63.7
			C47,345.1,9.1,319.4,1.3,228.3C-8.5,115.8,30.2,81.5,64.7,72.6c30.8-7.9,42.5-3.5,72.7-22.6c0,0-12.5,9.6-19.3,35.7
			C113,105.2,115.2,137.2,115.2,137.2z"/>
	</g>
	<g>
		<path fill="#26737B" d="M278.2,135.5c2.4,73.5-26.4,110.4-57.1,112.9c-23.5,1.9-62.8-10.9-64.8-95.1
			C154,56.6,205.4,45.7,218.7,44.6C248.8,42.1,276.1,73.3,278.2,135.5z M217,61.7c-25,7.1-26.9,37.3-25.3,80.9
			c0.9,25,3.3,95.6,24.1,98c30.1,3.5,38.4-53.2,34.1-104.3C245.7,85.1,240.1,55.2,217,61.7z"/>
	</g>
	<g>
		<path fill="#26737B" d="M525.6,89c-2,55.6-25.2,74.5-54.7,79.8c-19.9,3.5-50.7-3.6-49.5-82.1C422.7,3.8,467,3,478.4,3.2
			C504.3,3.7,527.9,27.4,525.6,89z M475.4,17.7c-21.9,3.9-26.2,29.5-28.6,66.8c-1.4,21.4,3.4,71.6,21.3,72.8
			c22.2,1.6,28.1-29.1,28.9-73.1S495.7,14.1,475.4,17.7z"/>
	</g>
	<g>
		<path fill="#26737B" d="M291,32c0,0,33.4-4.8,60.7-16.8c0,0-15.9,15.4-17.9,35.9s5.7,123.4,5.7,123.4s51.9,7.4,62.1-55.3
			c0,0-3.5,22.5,1.6,39.1c4.3,14,16.4,14.8,16.4,14.8l-120.3,36.1c0,0,13.9-16,16.1-61.2C317.5,102.6,308.9,44.1,291,32z"/>
	</g>
	<g>
		<path fill="#26737B" d="M782,13.3l-7.6,62.4c0,0-4.5-46-35.8-47.5s-39.9,44.8-1.9,53.6c46.5,10.7,62.3,38.9,54,68
			c-3.3,11.7-22.3,38.4-63.2,21.8c-34.6-14.1-36.9-26.1-50.7-1.5l3.6-59.6c0,0,22,45.8,50.6,48.9c18,2,29.1-6.4,29.2-27.8
			c0.1-38-71.3-18.7-78.8-65.9c-8.7-54.6,39.4-63,63.8-50.4C763.4,24.5,773.8,24.7,782,13.3z"/>
	</g>
	<g>
		<path fill="#26737B" d="M658.8,44.5c-4.8,34.6-34,35-34,35c36.9,15,25.4,41.7,24.2,59.2c-1.1,15.9,15.7,20.2,15.7,20.2
			c-28.7,5.4-39.8-1.9-41.4-16.3c-1.7-14.3,6-30.6-1.9-45.2C611.1,78.3,578.8,83,578.8,83s-0.3,18.8-0.1,42.6
			c0.1,22.1,23,33.8,23,33.8c-25.1-6.6-70.5,1.6-70.5,1.6c23.8-7.1,22.6-27.3,22.6-27.3c0.8-48.6,1.3-85.9,1.7-104
			c0.4-19.8-15.6-24.1-15.6-24.1C662.6-8.9,661.1,27.7,658.8,44.5z M618.7,68.5c22-4.1,25.1-46.3-1.1-48.6
			c-22.9-2-39.7-1.7-39.7-1.7l0.8,50.4C578.7,68.7,600.5,71.9,618.7,68.5z"/>
	</g>
	<g>
		<g>
			<path fill="#26737B" d="M75.3,472.4c10.9,0,20.3,2.4,28.3,7.2s12,10.5,12,17c0,6.1-4,11.3-12.1,15.7c-8.1,4.4-17.6,6.6-28.7,6.6
				c-10.9,0-20.4-2.2-28.7-6.7c-8.2-4.4-12.4-9.6-12.4-15.5c0-6.6,4.1-12.4,12.3-17.2C54.2,474.8,63.9,472.4,75.3,472.4z
				 M74.6,479.8c-4.5,0-8.1,1.5-10.9,4.3c-2.8,2.9-4.2,6.7-4.2,11.2c0,4.6,1.4,8.2,4.2,11c2.8,2.8,6.4,4.1,11,4.1s8.3-1.4,11-4.1
				s4.1-6.4,4.1-11s-1.4-8.3-4.2-11.2C82.7,481.3,79.1,479.8,74.6,479.8z"/>
		</g>
		<g>
			<path fill="#26737B" d="M114.1,440.3h84.2v20.8L181.5,448H152v8.8h16l12.5-5.2v20.9l-12.5-6.4h-16v7.1l15.9,10h-53.8l15.8-10
				v-23.1L114.1,440.3z"/>
		</g>
		<path fill="#26737B" d="M185.6,401.4c-1.3-0.6-28.4-12.5-65.8,9c2-7.3,1.4-14.1-2-20.3c-4.9-8.8-16.3-13.7-27.7-12
			c-10.6,1.6-18.1,8.5-20.2,18.5c-1.8,8.9,0.8,14.2,3.3,17.2c5.9,6.9,15.9,6.5,17,6.5c3-0.2,5.2-2.7,5-5.7s-2.8-5.3-5.7-5
			c-1.2,0-6.1-0.2-8.3-2.8c-1.4-1.6-1.7-4.3-1-8c1.6-7.5,7.8-9.6,11.3-10.1c6.9-1,14,1.8,16.7,6.6c4.3,7.7,0.9,18-10.1,30.6
			c-32.1,27.6-59.6,13.9-60.8,13.3c-2.6-1.4-5.8-0.4-7.2,2.2c-1.4,2.6-0.4,5.9,2.2,7.3c0.7,0.4,10.1,5.2,24.3,5.2
			c13.2,0,30.5-4.2,48.8-20.1c42.4-36.8,74.2-23.3,75.5-22.7c2.7,1.2,5.9,0.1,7.1-2.6C189.5,405.8,188.3,402.6,185.6,401.4z"/>
		<path fill="#26737B" d="M203.6,496.3c-1.9-0.3-47.1-6.5-82.8,22.9c-37.3,30.7-82.9,14.7-83.4,14.5c-2.8-1-5.9,0.4-6.9,3.2
			s0.4,5.9,3.2,6.9c1.1,0.4,14.4,5.1,32.8,5.1c16.1,0,36-3.6,55-16.9c0.1,0,0.1,0,0.1-0.1c8.2-4.8,21-6,21-6
			c16.7-2.6,27.3,0,31.6,7.9c2.6,4.8,1.1,12.4-3.4,17.6c-2.4,2.7-7.4,6.8-14.6,4.1c-3.5-1.3-5.6-3-6.2-5.1c-1-3.1,1.2-7.2,2.1-8.5
			c1.7-2.4,1.2-5.7-1.2-7.5s-5.8-1.2-7.5,1.2c-0.7,0.9-6.3,9.1-3.7,17.9c1.1,3.7,4.2,8.8,12.7,12c2.8,1.1,5.7,1.6,8.4,1.6
			c6.7,0,13.1-3,18-8.7c7.6-8.7,9.6-21,4.8-29.8c-5.7-10.5-17.2-15.3-34.2-14.3c26.5-11,52.2-7.6,52.5-7.6c2.8,0.3,5.7-1.6,6.1-4.5
			C208.6,499.5,206.6,496.7,203.6,496.3z"/>
	</g>
	<path fill="#26737B" d="M413.1,418.2L362,391.8c-45.9-23.7-62.2-36.5-62.2-61c0-23.7,19.7-41.5,45.8-41.5
		c45.9,0,70.7,27.7,75.9,87.1l0.5,4.6h26V250h-24.6l-1.2,6.1c-1.9,8-6,14.5-9.9,18.6c-14.7-10.3-33.5-19.9-65.1-19.9
		c-54.5,0-95.6,37.3-95.6,86.6c0,45.5,32.6,78.7,63.2,94.5l51.6,26.4c39.3,20.5,58.4,40,58.4,59.5c0,30.6-25.6,52.8-60.9,52.8
		c-90.8,0-92.6-87.1-92.6-90.8l-0.1-6.7H252v131h17.5l1.1-4.6c1.7-7.6,5.4-14,11.1-19.5c4.3,1.4,9.4,3.9,15.2,6.7
		c16,7.6,37.9,18.1,67.1,18.1c62.2,0,109.1-44.3,109.1-103.1C473,468.8,451.7,437.7,413.1,418.2z"/>
	<path fill="#26737B" d="M776.8,221H465v24h7.5c50.9,0,51.5,7.1,51.5,69.9v207c0,62.7-1.1,74.1-51.5,74.1H465v12h180v-12h-0.5
		c-50.4,0-60.5-11.5-60.5-74.1V424h31.8c62.8,0,75.2,5,75.2,56.5v8.5h12V327h-12v7.6c0,51.5-12.4,58.4-75.2,58.4H584V250h105.1
		c56.4,0,62.3,16.1,70.2,47.6L763,315h19.2L776.8,221z"/>
	<circle fill="#26737B" cx="102.5" cy="591.3" r="13.3"/>
</g>
</svg>
