<svg xmlns="http://www.w3.org/2000/svg" viewBox="0 0 792 612" enable-background="new 0 0 792 612"><path fill="#26737B" d="M115.2 137.2s-11-58.6-40.5-54.1-32.2 22.2-29.2 107.5S57.9 325.7 92.9 324c34.5-1.7 43.5-37.4 44.7-63 1-23.6-6.5-33.2-1.6-36.7s19.2 10.8 11.7 54.7c-7.6 44.9-35.7 60.7-72 63.7C47 345.1 9.1 319.4 1.3 228.3-8.5 115.8 30.2 81.5 64.7 72.6c30.8-7.9 42.5-3.5 72.7-22.6 0 0-12.5 9.6-19.3 35.7-5.1 19.5-2.9 51.5-2.9 51.5zM278.2 135.5c2.4 73.5-26.4 110.4-57.1 112.9-23.5 1.9-62.8-10.9-64.8-95.1-2.3-96.7 49.1-107.6 62.4-108.7 30.1-2.5 57.4 28.7 59.5 90.9zM217 61.7c-25 7.1-26.9 37.3-25.3 80.9.9 25 3.3 95.6 24.1 98 30.1 3.5 38.4-53.2 34.1-104.3-4.2-51.2-9.8-81.1-32.9-74.6zM525.6 89c-2 55.6-25.2 74.5-54.7 79.8-19.9 3.5-50.7-3.6-49.5-82.1C422.7 3.8 467 3 478.4 3.2c25.9.5 49.5 24.2 47.2 85.8zm-50.2-71.3c-21.9 3.9-26.2 29.5-28.6 66.8-1.4 21.4 3.4 71.6 21.3 72.8 22.2 1.6 28.1-29.1 28.9-73.1s-1.3-70.1-21.6-66.5zM291 32s33.4-4.8 60.7-16.8c0 0-15.9 15.4-17.9 35.9s5.7 123.4 5.7 123.4 51.9 7.4 62.1-55.3c0 0-3.5 22.5 1.6 39.1 4.3 14 16.4 14.8 16.4 14.8l-120.3 36.1s13.9-16 16.1-61.2c2.1-45.4-6.5-103.9-24.4-116zM782 13.3l-7.6 62.4s-4.5-46-35.8-47.5-39.9 44.8-1.9 53.6c46.5 10.7 62.3 38.9 54 68-3.3 11.7-22.3 38.4-63.2 21.8-34.6-14.1-36.9-26.1-50.7-1.5l3.6-59.6s22 45.8 50.6 48.9c18 2 29.1-6.4 29.2-27.8.1-38-71.3-18.7-78.8-65.9-8.7-54.6 39.4-63 63.8-50.4 18.2 9.2 28.6 9.4 36.8-2zM658.8 44.5c-4.8 34.6-34 35-34 35 36.9 15 25.4 41.7 24.2 59.2-1.1 15.9 15.7 20.2 15.7 20.2-28.7 5.4-39.8-1.9-41.4-16.3-1.7-14.3 6-30.6-1.9-45.2C611.1 78.3 578.8 83 578.8 83s-.3 18.8-.1 42.6c.1 22.1 23 33.8 23 33.8-25.1-6.6-70.5 1.6-70.5 1.6 23.8-7.1 22.6-27.3 22.6-27.3.8-48.6 1.3-85.9 1.7-104 .4-19.8-15.6-24.1-15.6-24.1C662.6-8.9 661.1 27.7 658.8 44.5zm-40.1 24c22-4.1 25.1-46.3-1.1-48.6-22.9-2-39.7-1.7-39.7-1.7l.8 50.4c0 .1 21.8 3.3 40-.1zM75.3 472.4c10.9 0 20.3 2.4 28.3 7.2s12 10.5 12 17c0 6.1-4 11.3-12.1 15.7-8.1 4.4-17.6 6.6-28.7 6.6-10.9 0-20.4-2.2-28.7-6.7-8.2-4.4-12.4-9.6-12.4-15.5 0-6.6 4.1-12.4 12.3-17.2 8.2-4.7 17.9-7.1 29.3-7.1zm-.7 7.4c-4.5 0-8.1 1.5-10.9 4.3-2.8 2.9-4.2 6.7-4.2 11.2 0 4.6 1.4 8.2 4.2 11 2.8 2.8 6.4 4.1 11 4.1s8.3-1.4 11-4.1 4.1-6.4 4.1-11-1.4-8.3-4.2-11.2c-2.9-2.8-6.5-4.3-11-4.3zM114.1 440.3h84.2v20.8L181.5 448H152v8.8h16l12.5-5.2v20.9l-12.5-6.4h-16v7.1l15.9 10h-53.8l15.8-10v-23.1l-15.8-9.8zM185.6 401.4c-1.3-.6-28.4-12.5-65.8 9 2-7.3 1.4-14.1-2-20.3-4.9-8.8-16.3-13.7-27.7-12-10.6 1.6-18.1 8.5-20.2 18.5-1.8 8.9.8 14.2 3.3 17.2 5.9 6.9 15.9 6.5 17 6.5 3-.2 5.2-2.7 5-5.7s-2.8-5.3-5.7-5c-1.2 0-6.1-.2-8.3-2.8-1.4-1.6-1.7-4.3-1-8 1.6-7.5 7.8-9.6 11.3-10.1 6.9-1 14 1.8 16.7 6.6 4.3 7.7.9 18-10.1 30.6-32.1 27.6-59.6 13.9-60.8 13.3-2.6-1.4-5.8-.4-7.2 2.2-1.4 2.6-.4 5.9 2.2 7.3.7.4 10.1 5.2 24.3 5.2 13.2 0 30.5-4.2 48.8-20.1 42.4-36.8 74.2-23.3 75.5-22.7 2.7 1.2 5.9.1 7.1-2.6 1.5-2.7.3-5.9-2.4-7.1zM203.6 496.3c-1.9-.3-47.1-6.5-82.8 22.9-37.3 30.7-82.9 14.7-83.4 14.5-2.8-1-5.9.4-6.9 3.2s.4 5.9 3.2 6.9c1.1.4 14.4 5.1 32.8 5.1 16.1 0 36-3.6 55-16.9.1 0 .1 0 .1-.1 8.2-4.8 21-6 21-6 16.7-2.6 27.3 0 31.6 7.9 2.6 4.8 1.1 12.4-3.4 17.6-2.4 2.7-7.4 6.8-14.6 4.1-3.5-1.3-5.6-3-6.2-5.1-1-3.1 1.2-7.2 2.1-8.5 1.7-2.4 1.2-5.7-1.2-7.5s-5.8-1.2-7.5 1.2c-.7.9-6.3 9.1-3.7 17.9 1.1 3.7 4.2 8.8 12.7 12 2.8 1.1 5.7 1.6 8.4 1.6 6.7 0 13.1-3 18-8.7 7.6-8.7 9.6-21 4.8-29.8-5.7-10.5-17.2-15.3-34.2-14.3 26.5-11 52.2-7.6 52.5-7.6 2.8.3 5.7-1.6 6.1-4.5.6-2.7-1.4-5.5-4.4-5.9zM413.1 418.2L362 391.8c-45.9-23.7-62.2-36.5-62.2-61 0-23.7 19.7-41.5 45.8-41.5 45.9 0 70.7 27.7 75.9 87.1l.5 4.6h26V250h-24.6l-1.2 6.1c-1.9 8-6 14.5-9.9 18.6-14.7-10.3-33.5-19.9-65.1-19.9-54.5 0-95.6 37.3-95.6 86.6 0 45.5 32.6 78.7 63.2 94.5l51.6 26.4c39.3 20.5 58.4 40 58.4 59.5 0 30.6-25.6 52.8-60.9 52.8-90.8 0-92.6-87.1-92.6-90.8l-.1-6.7H252v131h17.5l1.1-4.6c1.7-7.6 5.4-14 11.1-19.5 4.3 1.4 9.4 3.9 15.2 6.7 16 7.6 37.9 18.1 67.1 18.1 62.2 0 109.1-44.3 109.1-103.1-.1-36.9-21.4-68-60-87.5zM776.8 221H465v24h7.5c50.9 0 51.5 7.1 51.5 69.9v207c0 62.7-1.1 74.1-51.5 74.1H465v12h180v-12h-.5c-50.4 0-60.5-11.5-60.5-74.1V424h31.8c62.8 0 75.2 5 75.2 56.5v8.5h12V327h-12v7.6c0 51.5-12.4 58.4-75.2 58.4H584V250h105.1c56.4 0 62.3 16.1 70.2 47.6L763 315h19.2l-5.4-94z"/><circle fill="#26737B" cx="102.5" cy="591.3" r="13.3"/></svg>